<svg fill="#fff" width="40" height="45" viewBox="0 0 40 45" xmlns="http://www.w3.org/2000/svg">
  <path d="M20.0142 9.85836L20.2266 27.2805L12.4504 34.7592L12.3654 17.762C12.3654 17.5637 12.4929 17.2521 12.7479 16.8272C13.0312 16.3739 13.6402 15.7224 14.5751 14.8725L20.0142 9.85836ZM16.8697 0C18.3428 0.481586 19.915 0.991502 21.5864 1.52975C23.2578 2.06799 24.8725 2.56374 26.4306 3.017C28.017 3.47025 29.4618 3.85269 30.7649 4.16431C32.0963 4.47592 33.1445 4.63173 33.9093 4.63173C34.4193 4.63173 34.8867 4.58924 35.3116 4.50425C35.7365 4.39093 36.1615 4.22096 36.5864 3.99433C37.0113 3.7677 37.4646 3.47025 37.9462 3.10198C38.4278 2.73371 38.9802 2.26629 39.6034 1.69972C37.8187 3.48442 36.2323 4.94334 34.8442 6.07649C33.4561 7.20963 32.238 8.10198 31.1898 8.75354C30.1416 9.37677 29.2351 9.8017 28.4703 10.0283C27.7054 10.255 27.0255 10.3683 26.4306 10.3683C25.6091 10.3683 24.5751 10.2408 23.3286 9.98584C22.1105 9.70255 20.779 9.34844 19.3343 8.92351C17.9178 8.49858 16.4448 8.017 14.915 7.47875C13.4136 6.91218 11.983 6.34561 10.6232 5.77904L16.8697 0ZM36.8414 27.9178C36.5864 29.0793 36.1756 30.3116 35.6091 31.6147C35.0708 32.9178 34.3909 34.2068 33.5694 35.4816C32.7762 36.7564 31.8555 37.9745 30.8074 39.136C29.7875 40.2691 28.6402 41.2748 27.3654 42.153C26.0907 43.0312 24.7167 43.7252 23.2436 44.2351C21.7705 44.745 20.2125 45 18.5694 45C15.2833 45 12.4646 44.5184 10.1133 43.5552C7.79037 42.5921 5.87819 41.3173 4.37677 39.7309C2.87535 38.1161 1.77054 36.289 1.06232 34.2493C0.354108 32.2096 0 30.1133 0 27.9603C0 25.9207 0.155807 24.0652 0.467422 22.3938C0.779037 20.7224 1.31728 19.0793 2.08215 17.4646C2.84703 15.8215 3.88102 14.1218 5.18414 12.3654C6.51558 10.5807 8.18697 8.54108 10.1983 6.24646C9.12181 7.63456 8.31445 8.98017 7.7762 10.2833C7.23796 11.5581 6.85552 12.8187 6.6289 14.0652C6.4306 15.2833 6.33145 16.4873 6.33145 17.6771C6.33145 18.8385 6.33145 19.9717 6.33145 21.0765C6.33145 26.7989 7.79037 31.1898 10.7082 34.2493C13.6544 37.2805 18.0878 38.796 24.0085 38.796C25.6232 38.796 27.1388 38.4844 28.5552 37.8612C30 37.238 31.2748 36.4164 32.3796 35.3966C33.5127 34.3768 34.4618 33.2153 35.2266 31.9122C35.9915 30.6091 36.5297 29.2776 36.8414 27.9178Z" />
</svg>
